<svg width="31" height="30" viewBox="0 0 31 30" fill="none" xmlns="http://www.w3.org/2000/svg">
<g clip-path="url(#clip0_29_302)">
<path d="M4.66071 30H23.4107C24.5728 29.9967 25.6862 29.5325 26.5064 28.7092C27.3266 27.8859 27.7867 26.7709 27.7857 25.6087V16.1875C27.7857 15.856 27.654 15.538 27.4196 15.3036C27.1852 15.0692 26.8672 14.9375 26.5357 14.9375C26.2042 14.9375 25.8862 15.0692 25.6518 15.3036C25.4174 15.538 25.2857 15.856 25.2857 16.1875V25.6087C25.2874 26.108 25.0909 26.5876 24.7394 26.9422C24.3878 27.2967 23.91 27.4974 23.4107 27.5H4.66071C4.16142 27.4974 3.68359 27.2967 3.33206 26.9422C2.98054 26.5876 2.78404 26.108 2.78571 25.6087V6.89125C2.78404 6.39196 2.98054 5.91241 3.33206 5.55784C3.68359 5.20327 4.16142 5.00265 4.66071 5H14.0357C14.3672 5 14.6852 4.8683 14.9196 4.63388C15.154 4.39946 15.2857 4.08152 15.2857 3.75C15.2857 3.41848 15.154 3.10054 14.9196 2.86612C14.6852 2.6317 14.3672 2.5 14.0357 2.5H4.66071C3.49859 2.50331 2.38525 2.96754 1.56503 3.79081C0.744807 4.61408 0.284709 5.72913 0.285707 6.89125V25.6087C0.284709 26.7709 0.744807 27.8859 1.56503 28.7092C2.38525 29.5325 3.49859 29.9967 4.66071 30V30Z" fill="#5E32BA"/>
<path d="M12.1045 13.18L11.1182 17.6975C11.0736 17.9024 11.0812 18.1152 11.1404 18.3164C11.1996 18.5176 11.3085 18.7007 11.457 18.8487C11.6075 18.9931 11.7906 19.099 11.9908 19.1576C12.191 19.2161 12.4024 19.2255 12.607 19.185L17.1145 18.1962C17.3485 18.1449 17.5629 18.0273 17.732 17.8575L29.1245 6.465C29.4728 6.11677 29.749 5.70334 29.9375 5.24833C30.126 4.79332 30.223 4.30563 30.223 3.81312C30.223 3.32061 30.126 2.83293 29.9375 2.37791C29.749 1.9229 29.4728 1.50948 29.1245 1.16125C28.4104 0.478918 27.4608 0.0981445 26.4732 0.0981445C25.4856 0.0981445 24.536 0.478918 23.822 1.16125L12.447 12.565C12.2762 12.733 12.1574 12.9464 12.1045 13.18ZM25.5895 2.93C25.8273 2.70217 26.1439 2.57499 26.4732 2.57499C26.8025 2.57499 27.1192 2.70217 27.357 2.93C27.5882 3.16578 27.7177 3.48287 27.7177 3.81312C27.7177 4.14338 27.5882 4.46046 27.357 4.69625L26.4732 5.58L24.7057 3.8125L25.5895 2.93ZM14.4645 14.0725L22.932 5.58375L24.682 7.3425L16.2107 15.8337L13.967 16.3262L14.4645 14.0725Z" fill="#5E32BA"/>
</g>
<defs>
<clipPath id="clip0_29_302">
<rect width="30" height="30" fill="white" transform="translate(0.285706)"/>
</clipPath>
</defs>
</svg>
