<svg width="30" height="30" viewBox="0 0 30 30" fill="none" xmlns="http://www.w3.org/2000/svg">
<g clip-path="url(#clip0_9_313)">
<path d="M28.1576 26.8076H15.7062L20.7546 21.7592L20.757 21.7571L20.7592 21.7547L28.9799 13.534C29.6332 12.8792 30 11.992 30 11.0671C30 10.1422 29.6332 9.25501 28.9799 8.60019L22.4016 2.0218C21.7473 1.36755 20.8599 1 19.9347 1C19.0094 1 18.122 1.36755 17.4678 2.0218L9.24621 10.2434L9.24471 10.2447L9.24337 10.2462L1.0218 18.4678C0.36755 19.1221 0 20.0095 0 20.9348C0 21.86 0.36755 22.7474 1.0218 23.4017L6.41313 28.7929C6.63126 29.0109 6.92705 29.1334 7.23548 29.1334H28.1576C28.466 29.1334 28.7618 29.0109 28.9799 28.7928C29.198 28.5747 29.3205 28.2789 29.3205 27.9705C29.3205 27.6621 29.198 27.3663 28.9799 27.1482C28.7618 26.9301 28.466 26.8076 28.1576 26.8076V26.8076ZM19.1125 3.6665C19.2204 3.55849 19.3486 3.47281 19.4897 3.41435C19.6308 3.3559 19.782 3.32581 19.9347 3.32581C20.0874 3.32581 20.2386 3.3559 20.3797 3.41435C20.5208 3.47281 20.6489 3.55849 20.7569 3.6665L27.3352 10.2449C27.553 10.4631 27.6753 10.7589 27.6753 11.0672C27.6753 11.3755 27.553 11.6712 27.3352 11.8895L19.9347 19.2901L11.7118 11.0672L19.1125 3.6665Z" fill="#5E32BA"/>
</g>
<defs>
<clipPath id="clip0_9_313">
<rect width="30" height="30" fill="white"/>
</clipPath>
</defs>
</svg>
