<svg width="25" height="24" viewBox="0 0 25 24" fill="none" xmlns="http://www.w3.org/2000/svg">
<path fill-rule="evenodd" clip-rule="evenodd" d="M21.25 13.1905H17.5C15.4286 13.1905 13.75 14.7893 13.75 16.7619V20.3333C13.75 22.306 15.4286 23.9048 17.5 23.9048H21.25C23.3214 23.9048 25 22.306 25 20.3333V16.7619C25 14.7893 23.3214 13.1905 21.25 13.1905M7.5 13.1905H3.75C1.67857 13.1905 0 14.7893 0 16.7619V20.3333C0 22.306 1.67857 23.9048 3.75 23.9048H7.5C9.57143 23.9048 11.25 22.306 11.25 20.3333V16.7619C11.25 14.7893 9.57143 13.1905 7.5 13.1905M21.25 0.0952454H17.5C15.4286 0.0952454 13.75 1.69405 13.75 3.66667V7.2381C13.75 9.21072 15.4286 10.8095 17.5 10.8095H21.25C23.3214 10.8095 25 9.21072 25 7.2381V3.66667C25 1.69405 23.3214 0.0952454 21.25 0.0952454ZM11.25 3.66667V7.2381C11.25 9.21072 9.57143 10.8095 7.5 10.8095H3.75C1.67857 10.8095 0 9.21072 0 7.2381V3.66667C0 1.69405 1.67857 0.0952454 3.75 0.0952454H7.5C9.57143 0.0952454 11.25 1.69405 11.25 3.66667" fill="#5E32BA"/>
</svg>
